<svg width="276" height="159" viewBox="0 0 276 159" fill="none" xmlns="http://www.w3.org/2000/svg">
  <path d="M5.824 71.741C4.8 71.741 4.05333 71.5063 3.584 71.037C3.11467 70.5677 2.88 69.821 2.88 68.797V27.325C2.88 26.7703 2.944 26.301 3.072 25.917C3.24267 25.533 3.47733 25.213 3.776 24.957L12.032 17.981C12.2453 17.8103 12.5227 17.6823 12.864 17.597C13.248 17.469 13.6533 17.405 14.08 17.405H34.496C38.9333 17.405 42.1973 18.2797 44.288 20.029C46.3787 21.7357 47.424 24.3383 47.424 27.837V30.909C47.424 32.4023 47.2107 33.6823 46.784 34.749C46.4 35.8157 45.8027 36.669 44.992 37.309L44.8 37.437C47.104 37.949 48.832 39.0583 49.984 40.765C51.136 42.429 51.712 44.7543 51.712 47.741V53.629C51.712 55.549 51.4347 57.213 50.88 58.621C50.3253 59.9863 49.4933 61.1383 48.384 62.077L40.128 69.053C39.0613 69.949 37.7173 70.6103 36.096 71.037C34.4747 71.5063 32.576 71.741 30.4 71.741H5.824ZM38.656 64.125C42.88 64.125 45.9947 63.2717 48 61.565C50.048 59.8583 51.072 57.213 51.072 53.629V47.741C51.072 44.6263 50.4107 42.2583 49.088 40.637C47.7653 39.0157 45.7387 38.077 43.008 37.821C44.288 37.2663 45.2267 36.4343 45.824 35.325C46.464 34.173 46.784 32.701 46.784 30.909V27.837C46.784 24.509 45.7813 22.0557 43.776 20.477C41.7707 18.8557 38.6773 18.045 34.496 18.045H14.08C13.2693 18.045 12.672 18.237 12.288 18.621C11.9467 18.9623 11.776 19.5383 11.776 20.349V61.821C11.776 62.6317 11.9467 63.229 12.288 63.613C12.672 63.9543 13.2693 64.125 14.08 64.125H38.656ZM36.096 58.365H18.88V23.805H31.872C33.6213 23.805 35.0507 23.997 36.16 24.381C37.2693 24.7223 38.1227 25.213 38.72 25.853C39.3173 26.4503 39.7227 27.1543 39.936 27.965C40.1493 28.7757 40.256 29.6503 40.256 30.589V34.685C40.256 35.965 40.0213 37.1383 39.552 38.205C39.1253 39.2717 37.9947 40.0397 36.16 40.509C37.9093 40.509 39.3387 40.701 40.448 41.085C41.5573 41.4263 42.4107 41.9383 43.008 42.621C43.6053 43.261 43.9893 44.029 44.16 44.925C44.3733 45.821 44.48 46.8023 44.48 47.869V51.965C44.48 52.9037 44.3733 53.7783 44.16 54.589C43.9467 55.357 43.5413 56.0183 42.944 56.573C42.3893 57.1277 41.5573 57.5757 40.448 57.917C39.3387 58.2157 37.888 58.365 36.096 58.365ZM31.872 24.445H19.52V40.509H31.872C33.6213 40.509 35.008 40.3597 36.032 40.061C37.056 39.7197 37.824 39.293 38.336 38.781C38.8907 38.2263 39.232 37.6077 39.36 36.925C39.5307 36.1997 39.616 35.453 39.616 34.685V30.589C39.616 28.8823 39.1253 27.4317 38.144 26.237C37.1627 25.0423 35.072 24.445 31.872 24.445ZM26.176 28.925H31.616C32.4267 28.925 33.024 29.1383 33.408 29.565C33.8347 29.9917 34.048 30.6317 34.048 31.485V33.277C34.048 34.1303 33.8347 34.7703 33.408 35.197C33.024 35.6237 32.4267 35.837 31.616 35.837H26.176V28.925ZM36.16 41.149H19.52V57.725H36.096C39.296 57.725 41.3867 57.213 42.368 56.189C43.3493 55.1223 43.84 53.7143 43.84 51.965V47.869C43.84 45.949 43.3493 44.349 42.368 43.069C41.4293 41.789 39.36 41.149 36.16 41.149ZM26.176 45.693H34.496C35.3067 45.693 35.904 45.9063 36.288 46.333C36.7147 46.717 36.928 47.3357 36.928 48.189V50.685C36.928 51.5383 36.7147 52.1783 36.288 52.605C35.904 53.0317 35.3067 53.245 34.496 53.245H26.176V45.693ZM86.0925 24.445H72.1405V42.941H86.0925C88.7378 42.941 90.5085 42.301 91.4045 41.021C92.3005 39.741 92.7485 37.9277 92.7485 35.581V31.101C92.7485 29.1383 92.1938 27.5383 91.0845 26.301C90.0178 25.0637 88.3538 24.445 86.0925 24.445ZM79.0525 29.565H83.8525C84.9618 29.565 85.7085 29.8637 86.0925 30.461C86.4765 31.0157 86.6685 31.7197 86.6685 32.573V34.749C86.6685 35.6023 86.4765 36.3277 86.0925 36.925C85.7085 37.4797 84.9618 37.757 83.8525 37.757H79.0525V29.565ZM72.1405 58.365H71.5005V23.805H86.0925C88.5672 23.805 90.4018 24.509 91.5965 25.917C92.7912 27.2823 93.3885 29.0103 93.3885 31.101V35.517C93.3885 37.4797 93.1325 39.101 92.6205 40.381C92.1085 41.6183 91.0845 42.4717 89.5485 42.941H90.2525C92.8552 42.941 94.7965 43.5383 96.0765 44.733C97.3565 45.885 97.9965 47.5703 97.9965 49.789V58.365H97.3565V49.789C97.3565 47.6983 96.7805 46.141 95.6285 45.117C94.4765 44.0503 92.6845 43.517 90.2525 43.517H72.1405V58.365ZM76.7485 64.125C77.5592 64.125 78.1352 63.9543 78.4765 63.613C78.8605 63.229 79.0525 62.6317 79.0525 61.821V49.277H88.0125C88.9085 49.277 89.5272 49.5117 89.8685 49.981C90.2525 50.4077 90.4445 51.0903 90.4445 52.029V61.821C90.4445 62.6317 90.6152 63.229 90.9565 63.613C91.3405 63.9543 91.9378 64.125 92.7485 64.125H102.669C103.479 64.125 104.055 63.9543 104.397 63.613C104.781 63.229 104.973 62.6317 104.973 61.821V48.253C104.973 45.565 104.247 43.4103 102.797 41.789C101.389 40.1677 99.5325 39.229 97.2285 38.973C98.5512 38.4183 99.4685 37.5223 99.9805 36.285C100.535 35.005 100.813 33.469 100.813 31.677V28.733C100.813 25.5757 99.8952 23.0157 98.0605 21.053C96.2685 19.0477 92.9832 18.045 88.2045 18.045H66.8925C66.0818 18.045 65.4845 18.237 65.1005 18.621C64.7592 18.9623 64.5885 19.5383 64.5885 20.349V61.821C64.5885 62.6317 64.7592 63.229 65.1005 63.613C65.4845 63.9543 66.0818 64.125 66.8925 64.125H76.7485ZM78.7965 64.189L70.4765 71.101C70.3058 71.2717 70.0285 71.421 69.6445 71.549C69.3032 71.677 68.9192 71.741 68.4925 71.741H58.6365C57.6125 71.741 56.8658 71.5063 56.3965 71.037C55.9272 70.5677 55.6925 69.821 55.6925 68.797V27.325C55.6925 26.7703 55.7565 26.301 55.8845 25.917C56.0552 25.533 56.2898 25.213 56.5885 24.957L64.8445 17.981C65.0578 17.8103 65.3352 17.6823 65.6765 17.597C66.0605 17.469 66.4658 17.405 66.8925 17.405H88.2045C93.2818 17.405 96.7592 18.4717 98.6365 20.605C100.514 22.6957 101.453 25.405 101.453 28.733V31.677C101.453 33.2557 101.261 34.6423 100.877 35.837C100.493 36.989 99.8738 37.9277 99.0205 38.653H98.9565C100.962 39.2077 102.562 40.317 103.757 41.981C104.994 43.645 105.613 45.7357 105.613 48.253V61.821C105.613 62.3757 105.527 62.845 105.357 63.229C105.229 63.613 105.015 63.933 104.717 64.189L96.3965 71.101C96.2258 71.2717 95.9485 71.421 95.5645 71.549C95.2232 71.677 94.8392 71.741 94.4125 71.741H84.4925C83.4685 71.741 82.7218 71.5063 82.2525 71.037C81.7832 70.5677 81.5485 69.821 81.5485 68.797V59.005C81.5485 58.3223 81.4205 57.8103 81.1645 57.469C80.9085 57.085 80.4392 56.893 79.7565 56.893H79.6925V61.821C79.6925 62.3757 79.6072 62.845 79.4365 63.229C79.3085 63.613 79.0952 63.933 78.7965 64.189ZM124.99 44.733V46.717H149.95V44.733C149.95 43.581 149.843 42.5143 149.63 41.533C149.459 40.5517 149.225 39.6343 148.926 38.781L144.51 28.349C144.041 27.2397 143.55 26.3223 143.038 25.597C142.526 24.829 141.673 24.445 140.478 24.445H134.206C132.926 24.445 132.03 24.829 131.518 25.597C131.006 26.3223 130.537 27.2183 130.11 28.285L126.014 38.781C125.715 39.6343 125.459 40.5517 125.246 41.533C125.075 42.5143 124.99 43.581 124.99 44.733ZM135.23 31.485C135.401 31.101 135.571 30.8237 135.742 30.653C135.955 30.4823 136.19 30.397 136.446 30.397H138.046C138.302 30.397 138.515 30.4823 138.686 30.653C138.899 30.8237 139.091 31.101 139.262 31.485L142.27 41.213H132.222L135.23 31.485ZM149.95 58.365V47.357H124.99V58.365H124.35V44.733C124.35 43.5383 124.435 42.4503 124.606 41.469C124.819 40.445 125.097 39.4637 125.438 38.525L129.534 28.029C130.003 26.8343 130.537 25.8317 131.134 25.021C131.731 24.2103 132.755 23.805 134.206 23.805H140.478C141.886 23.805 142.867 24.2103 143.422 25.021C144.019 25.8317 144.574 26.8557 145.086 28.093L149.502 38.525C149.843 39.4637 150.099 40.445 150.27 41.469C150.483 42.4503 150.59 43.5383 150.59 44.733V58.365H149.95ZM131.582 61.821V52.861H142.91V61.821C142.91 62.6317 143.102 63.229 143.486 63.613C143.913 63.9543 144.553 64.125 145.406 64.125H155.07C155.881 64.125 156.457 63.9543 156.798 63.613C157.182 63.229 157.374 62.6317 157.374 61.821V44.925C157.374 43.645 157.161 42.173 156.734 40.509C156.35 38.845 155.731 36.9037 154.878 34.685L149.31 20.157C149.054 19.4317 148.649 18.8983 148.094 18.557C147.582 18.2157 146.921 18.045 146.11 18.045H128.894C128.041 18.045 127.337 18.2157 126.782 18.557C126.27 18.8983 125.886 19.4317 125.63 20.157L120.062 34.685C119.209 36.9037 118.569 38.845 118.142 40.509C117.758 42.173 117.566 43.645 117.566 44.925V61.821C117.566 62.6317 117.737 63.229 118.078 63.613C118.462 63.9543 119.059 64.125 119.87 64.125H129.278C130.089 64.125 130.665 63.9543 131.006 63.613C131.39 63.229 131.582 62.6317 131.582 61.821ZM123.006 71.101C122.835 71.2717 122.558 71.421 122.174 71.549C121.833 71.677 121.449 71.741 121.022 71.741H111.614C110.59 71.741 109.843 71.5063 109.374 71.037C108.905 70.5677 108.67 69.821 108.67 68.797V51.901C108.67 50.5783 108.862 49.085 109.246 47.421C109.673 45.7143 110.334 43.709 111.23 41.405L116.734 26.941C116.862 26.557 117.011 26.237 117.182 25.981C117.395 25.6823 117.609 25.4263 117.822 25.213L117.886 25.149L126.078 18.301C126.419 18.0023 126.825 17.789 127.294 17.661C127.763 17.4903 128.297 17.405 128.894 17.405H146.11C147.091 17.405 147.881 17.6183 148.478 18.045C149.118 18.429 149.587 19.0477 149.886 19.901L155.454 34.429C156.35 36.733 156.99 38.7383 157.374 40.445C157.801 42.109 158.014 43.6023 158.014 44.925V61.821C158.014 62.3757 157.929 62.845 157.758 63.229C157.63 63.613 157.417 63.933 157.118 64.189L148.798 71.101C148.627 71.2717 148.35 71.421 147.966 71.549C147.625 71.677 147.241 71.741 146.814 71.741H137.15C136.083 71.741 135.294 71.485 134.782 70.973C134.27 70.5037 134.014 69.7783 134.014 68.797V60.477H132.222V61.821C132.222 62.3757 132.137 62.845 131.966 63.229C131.838 63.613 131.625 63.933 131.326 64.189L123.006 71.101ZM191.939 71.741H164.675C163.651 71.741 162.904 71.5063 162.435 71.037C161.966 70.5677 161.731 69.821 161.731 68.797V61.181C161.731 60.6263 161.795 60.157 161.923 59.773C162.094 59.389 162.328 59.069 162.627 58.813L170.371 52.285V38.013H164.675C163.651 38.013 162.904 37.7783 162.435 37.309C161.966 36.8397 161.731 36.093 161.731 35.069V27.325C161.731 26.7703 161.795 26.301 161.923 25.917C162.094 25.533 162.328 25.213 162.627 24.957L170.883 17.981C171.096 17.8103 171.374 17.6823 171.715 17.597C172.099 17.469 172.504 17.405 172.931 17.405H200.195C201.219 17.405 201.966 17.6397 202.435 18.109C202.904 18.5783 203.139 19.325 203.139 20.349V28.093C203.139 28.6477 203.054 29.117 202.883 29.501C202.755 29.885 202.542 30.205 202.243 30.461L194.627 36.861V51.261H200.195C201.219 51.261 201.966 51.4957 202.435 51.965C202.904 52.4343 203.139 53.181 203.139 54.205V61.821C203.139 62.3757 203.054 62.845 202.883 63.229C202.755 63.613 202.542 63.933 202.243 64.189L193.923 71.101C193.752 71.2717 193.475 71.421 193.091 71.549C192.75 71.677 192.366 71.741 191.939 71.741ZM172.931 64.125H200.195C201.006 64.125 201.582 63.9543 201.923 63.613C202.307 63.229 202.499 62.6317 202.499 61.821V54.205C202.499 53.3943 202.307 52.8183 201.923 52.477C201.582 52.093 201.006 51.901 200.195 51.901H193.987V30.397H200.195C201.006 30.397 201.582 30.2263 201.923 29.885C202.307 29.501 202.499 28.9037 202.499 28.093V20.349C202.499 19.5383 202.307 18.9623 201.923 18.621C201.582 18.237 201.006 18.045 200.195 18.045H172.931C172.12 18.045 171.523 18.237 171.139 18.621C170.798 18.9623 170.627 19.5383 170.627 20.349V28.093C170.627 28.9037 170.798 29.501 171.139 29.885C171.523 30.2263 172.12 30.397 172.931 30.397H179.267V51.901H172.931C172.12 51.901 171.523 52.093 171.139 52.477C170.798 52.8183 170.627 53.3943 170.627 54.205V61.821C170.627 62.6317 170.798 63.229 171.139 63.613C171.523 63.9543 172.12 64.125 172.931 64.125ZM196.739 58.365H176.387V57.725H186.307V24.445H176.387V23.805H196.739V24.445H186.947V57.725H196.739V58.365ZM225.224 24.317L248.776 50.813V23.805H249.416V58.365H248.776V51.773L224.584 24.637C224.541 24.5943 224.477 24.5517 224.392 24.509C224.349 24.4663 224.307 24.445 224.264 24.445C224.221 24.445 224.179 24.4663 224.136 24.509C224.136 24.5517 224.136 24.5943 224.136 24.637V58.365H223.496V24.509C223.496 24.253 223.581 24.061 223.752 23.933C223.923 23.805 224.093 23.741 224.264 23.741C224.435 23.741 224.584 23.7837 224.712 23.869C224.84 23.9543 225.011 24.1037 225.224 24.317ZM228.68 64.125C229.491 64.125 230.067 63.9543 230.408 63.613C230.792 63.229 230.984 62.6317 230.984 61.821V40.701L241.928 53.949V61.821C241.928 62.6317 242.099 63.229 242.44 63.613C242.824 63.9543 243.421 64.125 244.232 64.125H253.832C254.643 64.125 255.219 63.9543 255.56 63.613C255.944 63.229 256.136 62.6317 256.136 61.821V20.349C256.136 19.5383 255.944 18.9623 255.56 18.621C255.219 18.237 254.643 18.045 253.832 18.045H244.232C243.421 18.045 242.824 18.237 242.44 18.621C242.099 18.9623 241.928 19.5383 241.928 20.349V33.981L229.512 19.773C228.957 19.133 228.381 18.685 227.784 18.429C227.229 18.173 226.547 18.045 225.736 18.045H219.08C218.269 18.045 217.672 18.237 217.288 18.621C216.947 18.9623 216.776 19.5383 216.776 20.349V61.821C216.776 62.6317 216.947 63.229 217.288 63.613C217.672 63.9543 218.269 64.125 219.08 64.125H228.68ZM230.728 64.189L222.408 71.101C222.237 71.2717 221.96 71.421 221.576 71.549C221.235 71.677 220.851 71.741 220.424 71.741H210.824C209.8 71.741 209.053 71.5063 208.584 71.037C208.115 70.5677 207.88 69.821 207.88 68.797V27.325C207.88 26.7703 207.944 26.301 208.072 25.917C208.243 25.533 208.477 25.213 208.776 24.957L217.032 17.981C217.245 17.8103 217.523 17.6823 217.864 17.597C218.248 17.469 218.653 17.405 219.08 17.405H225.736C226.675 17.405 227.464 17.5543 228.104 17.853C228.744 18.1517 229.384 18.6423 230.024 19.325L234.44 24.445L242.184 17.981C242.397 17.8103 242.675 17.6823 243.016 17.597C243.4 17.469 243.805 17.405 244.232 17.405H253.832C254.856 17.405 255.603 17.6397 256.072 18.109C256.541 18.5783 256.776 19.325 256.776 20.349V61.821C256.776 62.3757 256.691 62.845 256.52 63.229C256.392 63.613 256.179 63.933 255.88 64.189L247.56 71.101C247.389 71.2717 247.112 71.421 246.728 71.549C246.387 71.677 246.003 71.741 245.576 71.741H235.976C234.952 71.741 234.205 71.5063 233.736 71.037C233.267 70.5677 233.032 69.821 233.032 68.797V61.181L231.624 59.453V61.821C231.624 62.3757 231.539 62.845 231.368 63.229C231.24 63.613 231.027 63.933 230.728 64.189ZM5.824 148.741C4.8 148.741 4.05333 148.506 3.584 148.037C3.11467 147.568 2.88 146.821 2.88 145.797V104.325C2.88 103.77 2.944 103.301 3.072 102.917C3.24267 102.533 3.47733 102.213 3.776 101.957L12.032 94.981C12.2453 94.8103 12.5227 94.6823 12.864 94.597C13.248 94.469 13.6533 94.405 14.08 94.405H34.496C38.9333 94.405 42.1973 95.2797 44.288 97.029C46.3787 98.7357 47.424 101.338 47.424 104.837V107.909C47.424 109.402 47.2107 110.682 46.784 111.749C46.4 112.816 45.8027 113.669 44.992 114.309L44.8 114.437C47.104 114.949 48.832 116.058 49.984 117.765C51.136 119.429 51.712 121.754 51.712 124.741V130.629C51.712 132.549 51.4347 134.213 50.88 135.621C50.3253 136.986 49.4933 138.138 48.384 139.077L40.128 146.053C39.0613 146.949 37.7173 147.61 36.096 148.037C34.4747 148.506 32.576 148.741 30.4 148.741H5.824ZM38.656 141.125C42.88 141.125 45.9947 140.272 48 138.565C50.048 136.858 51.072 134.213 51.072 130.629V124.741C51.072 121.626 50.4107 119.258 49.088 117.637C47.7653 116.016 45.7387 115.077 43.008 114.821C44.288 114.266 45.2267 113.434 45.824 112.325C46.464 111.173 46.784 109.701 46.784 107.909V104.837C46.784 101.509 45.7813 99.0557 43.776 97.477C41.7707 95.8557 38.6773 95.045 34.496 95.045H14.08C13.2693 95.045 12.672 95.237 12.288 95.621C11.9467 95.9623 11.776 96.5383 11.776 97.349V138.821C11.776 139.632 11.9467 140.229 12.288 140.613C12.672 140.954 13.2693 141.125 14.08 141.125H38.656ZM36.096 135.365H18.88V100.805H31.872C33.6213 100.805 35.0507 100.997 36.16 101.381C37.2693 101.722 38.1227 102.213 38.72 102.853C39.3173 103.45 39.7227 104.154 39.936 104.965C40.1493 105.776 40.256 106.65 40.256 107.589V111.685C40.256 112.965 40.0213 114.138 39.552 115.205C39.1253 116.272 37.9947 117.04 36.16 117.509C37.9093 117.509 39.3387 117.701 40.448 118.085C41.5573 118.426 42.4107 118.938 43.008 119.621C43.6053 120.261 43.9893 121.029 44.16 121.925C44.3733 122.821 44.48 123.802 44.48 124.869V128.965C44.48 129.904 44.3733 130.778 44.16 131.589C43.9467 132.357 43.5413 133.018 42.944 133.573C42.3893 134.128 41.5573 134.576 40.448 134.917C39.3387 135.216 37.888 135.365 36.096 135.365ZM31.872 101.445H19.52V117.509H31.872C33.6213 117.509 35.008 117.36 36.032 117.061C37.056 116.72 37.824 116.293 38.336 115.781C38.8907 115.226 39.232 114.608 39.36 113.925C39.5307 113.2 39.616 112.453 39.616 111.685V107.589C39.616 105.882 39.1253 104.432 38.144 103.237C37.1627 102.042 35.072 101.445 31.872 101.445ZM26.176 105.925H31.616C32.4267 105.925 33.024 106.138 33.408 106.565C33.8347 106.992 34.048 107.632 34.048 108.485V110.277C34.048 111.13 33.8347 111.77 33.408 112.197C33.024 112.624 32.4267 112.837 31.616 112.837H26.176V105.925ZM36.16 118.149H19.52V134.725H36.096C39.296 134.725 41.3867 134.213 42.368 133.189C43.3493 132.122 43.84 130.714 43.84 128.965V124.869C43.84 122.949 43.3493 121.349 42.368 120.069C41.4293 118.789 39.36 118.149 36.16 118.149ZM26.176 122.693H34.496C35.3067 122.693 35.904 122.906 36.288 123.333C36.7147 123.717 36.928 124.336 36.928 125.189V127.685C36.928 128.538 36.7147 129.178 36.288 129.605C35.904 130.032 35.3067 130.245 34.496 130.245H26.176V122.693ZM75.7885 149.701C71.6498 149.701 68.2365 149.253 65.5485 148.357C62.9032 147.504 60.8338 146.352 59.3405 144.901C57.8472 143.45 56.8018 141.786 56.2045 139.909C55.6498 138.032 55.3725 136.09 55.3725 134.085V104.325C55.3725 103.77 55.4365 103.301 55.5645 102.917C55.7352 102.533 55.9698 102.213 56.2685 101.957L64.5245 94.981C64.7378 94.8103 65.0152 94.6823 65.3565 94.597C65.7405 94.469 66.1458 94.405 66.5725 94.405H76.6205C77.6445 94.405 78.3912 94.6397 78.8605 95.109C79.3298 95.5783 79.5645 96.325 79.5645 97.349V126.533C79.5645 126.917 79.6285 127.28 79.7565 127.621C79.8845 127.92 80.1618 128.154 80.5885 128.325V104.325C80.5885 103.77 80.6525 103.301 80.7805 102.917C80.9085 102.533 81.1005 102.234 81.3565 102.021L81.4205 101.957L89.7405 94.981C89.9538 94.8103 90.2312 94.6823 90.5725 94.597C90.9138 94.469 91.3192 94.405 91.7885 94.405H101.517C102.541 94.405 103.287 94.6397 103.757 95.109C104.226 95.5783 104.461 96.325 104.461 97.349V129.029C104.461 130.992 104.183 132.805 103.629 134.469C103.074 136.133 102.071 137.562 100.621 138.757L92.3005 145.669C90.8072 146.949 88.7378 147.93 86.0925 148.613C83.4472 149.338 80.0125 149.701 75.7885 149.701ZM103.821 129.029V97.349C103.821 96.5383 103.629 95.9623 103.245 95.621C102.903 95.237 102.327 95.045 101.517 95.045H91.7885C90.9778 95.045 90.3805 95.237 89.9965 95.621C89.6552 95.9623 89.4845 96.5383 89.4845 97.349V126.533C89.4845 127.386 89.1645 128.112 88.5245 128.709C87.8845 129.264 86.4338 129.541 84.1725 129.541C81.9538 129.541 80.5245 129.264 79.8845 128.709C79.2445 128.112 78.9245 127.386 78.9245 126.533V97.349C78.9245 96.5383 78.7325 95.9623 78.3485 95.621C78.0072 95.237 77.4312 95.045 76.6205 95.045H66.5725C65.7618 95.045 65.1645 95.237 64.7805 95.621C64.4392 95.9623 64.2685 96.5383 64.2685 97.349V129.029C64.2685 130.992 64.5458 132.784 65.1005 134.405C65.6978 135.984 66.7218 137.349 68.1725 138.501C69.6658 139.61 71.6925 140.485 74.2525 141.125C76.8125 141.765 80.0765 142.085 84.0445 142.085C88.0125 142.085 91.2765 141.765 93.8365 141.125C96.3965 140.485 98.4018 139.61 99.8525 138.501C101.346 137.349 102.37 135.984 102.925 134.405C103.522 132.784 103.821 130.992 103.821 129.029ZM71.3085 100.805H71.9485V127.493C71.9485 129.882 72.7805 131.824 74.4445 133.317C76.1512 134.768 79.3725 135.493 84.1085 135.493C88.8445 135.493 92.0658 134.768 93.7725 133.317C95.4792 131.824 96.3325 129.882 96.3325 127.493V100.805H96.9725V127.493C96.9725 130.053 96.0765 132.144 94.2845 133.765C92.4925 135.344 89.1005 136.133 84.1085 136.133C79.1165 136.133 75.7245 135.344 73.9325 133.765C72.1832 132.144 71.3085 130.053 71.3085 127.493V100.805ZM140.218 101.445H126.266V119.941H140.218C142.863 119.941 144.634 119.301 145.53 118.021C146.426 116.741 146.874 114.928 146.874 112.581V108.101C146.874 106.138 146.319 104.538 145.21 103.301C144.143 102.064 142.479 101.445 140.218 101.445ZM133.178 106.565H137.978C139.087 106.565 139.834 106.864 140.218 107.461C140.602 108.016 140.794 108.72 140.794 109.573V111.749C140.794 112.602 140.602 113.328 140.218 113.925C139.834 114.48 139.087 114.757 137.978 114.757H133.178V106.565ZM126.266 135.365H125.626V100.805H140.218C142.692 100.805 144.527 101.509 145.722 102.917C146.916 104.282 147.514 106.01 147.514 108.101V112.517C147.514 114.48 147.258 116.101 146.746 117.381C146.234 118.618 145.21 119.472 143.674 119.941H144.378C146.98 119.941 148.922 120.538 150.202 121.733C151.482 122.885 152.122 124.57 152.122 126.789V135.365H151.482V126.789C151.482 124.698 150.906 123.141 149.754 122.117C148.602 121.05 146.81 120.517 144.378 120.517H126.266V135.365ZM130.874 141.125C131.684 141.125 132.26 140.954 132.602 140.613C132.986 140.229 133.178 139.632 133.178 138.821V126.277H142.138C143.034 126.277 143.652 126.512 143.994 126.981C144.378 127.408 144.569 128.09 144.569 129.029V138.821C144.569 139.632 144.74 140.229 145.082 140.613C145.466 140.954 146.063 141.125 146.874 141.125H156.794C157.604 141.125 158.18 140.954 158.522 140.613C158.906 140.229 159.098 139.632 159.098 138.821V125.253C159.098 122.565 158.372 120.41 156.922 118.789C155.514 117.168 153.658 116.229 151.354 115.973C152.676 115.418 153.594 114.522 154.106 113.285C154.66 112.005 154.938 110.469 154.938 108.677V105.733C154.938 102.576 154.02 100.016 152.186 98.053C150.394 96.0477 147.108 95.045 142.33 95.045H121.018C120.207 95.045 119.61 95.237 119.226 95.621C118.884 95.9623 118.714 96.5383 118.714 97.349V138.821C118.714 139.632 118.884 140.229 119.226 140.613C119.61 140.954 120.207 141.125 121.018 141.125H130.874ZM132.922 141.189L124.602 148.101C124.431 148.272 124.154 148.421 123.77 148.549C123.428 148.677 123.044 148.741 122.618 148.741H112.762C111.738 148.741 110.991 148.506 110.522 148.037C110.052 147.568 109.818 146.821 109.818 145.797V104.325C109.818 103.77 109.882 103.301 110.01 102.917C110.18 102.533 110.415 102.213 110.714 101.957L118.97 94.981C119.183 94.8103 119.46 94.6823 119.802 94.597C120.186 94.469 120.591 94.405 121.018 94.405H142.33C147.407 94.405 150.884 95.4717 152.762 97.605C154.639 99.6957 155.578 102.405 155.578 105.733V108.677C155.578 110.256 155.386 111.642 155.002 112.837C154.618 113.989 153.999 114.928 153.146 115.653H153.082C155.087 116.208 156.687 117.317 157.882 118.981C159.119 120.645 159.738 122.736 159.738 125.253V138.821C159.738 139.376 159.652 139.845 159.482 140.229C159.354 140.613 159.14 140.933 158.842 141.189L150.522 148.101C150.351 148.272 150.074 148.421 149.69 148.549C149.348 148.677 148.964 148.741 148.538 148.741H138.618C137.594 148.741 136.847 148.506 136.378 148.037C135.908 147.568 135.674 146.821 135.674 145.797V136.005C135.674 135.322 135.546 134.81 135.29 134.469C135.034 134.085 134.564 133.893 133.882 133.893H133.818V138.821C133.818 139.376 133.732 139.845 133.562 140.229C133.434 140.613 133.22 140.933 132.922 141.189ZM165.547 148.741C164.523 148.741 163.776 148.506 163.307 148.037C162.838 147.568 162.603 146.821 162.603 145.797V138.309C162.603 137.754 162.667 137.285 162.795 136.901C162.966 136.517 163.2 136.197 163.499 135.941L169.899 130.565C167.638 129.882 165.846 128.73 164.523 127.109C163.243 125.445 162.603 123.077 162.603 120.005V113.285C162.603 111.365 162.923 109.658 163.563 108.165C164.203 106.672 165.12 105.413 166.315 104.389L174.635 97.413C175.787 96.4743 177.216 95.749 178.923 95.237C180.63 94.6823 182.571 94.405 184.747 94.405H202.667C203.691 94.405 204.438 94.6397 204.907 95.109C205.376 95.5783 205.611 96.325 205.611 97.349V104.965C205.611 105.52 205.526 105.989 205.355 106.373C205.227 106.757 205.014 107.077 204.715 107.333L198.955 112.133C201.643 112.73 203.798 113.861 205.419 115.525C207.083 117.146 207.915 119.685 207.915 123.141V129.861C207.915 131.781 207.595 133.488 206.955 134.981C206.315 136.474 205.376 137.733 204.139 138.757L195.883 145.669C194.688 146.65 193.238 147.397 191.531 147.909C189.824 148.464 187.904 148.741 185.771 148.741H165.547ZM194.027 141.125C198.123 141.125 201.344 140.165 203.691 138.245C206.08 136.282 207.275 133.488 207.275 129.861V123.141C207.275 119.557 206.358 116.997 204.523 115.461C202.688 113.925 200.278 112.944 197.291 112.517L187.755 111.237C187.2 111.194 186.774 110.981 186.475 110.597C186.176 110.213 186.027 109.744 186.027 109.189C186.027 108.634 186.176 108.186 186.475 107.845C186.774 107.461 187.2 107.269 187.755 107.269H202.667C203.478 107.269 204.054 107.098 204.395 106.757C204.779 106.373 204.971 105.776 204.971 104.965V97.349C204.971 96.5383 204.779 95.9623 204.395 95.621C204.054 95.237 203.478 95.045 202.667 95.045H184.747C180.608 95.045 177.366 96.0263 175.019 97.989C172.672 99.909 171.499 102.682 171.499 106.309V113.029C171.499 116.613 172.395 119.173 174.187 120.709C176.022 122.245 178.432 123.226 181.419 123.653L191.019 124.997C191.574 125.04 191.979 125.232 192.235 125.573C192.534 125.914 192.683 126.448 192.683 127.173C192.683 127.685 192.534 128.133 192.235 128.517C191.979 128.858 191.574 129.029 191.019 129.029H173.803C172.992 129.029 172.395 129.221 172.011 129.605C171.67 129.946 171.499 130.522 171.499 131.333V138.821C171.499 139.632 171.67 140.229 172.011 140.613C172.395 140.954 172.992 141.125 173.803 141.125H194.027ZM199.211 100.805V101.445H185.003C183.211 101.445 181.782 101.936 180.715 102.917C179.648 103.898 179.115 105.136 179.115 106.629V111.877C179.115 113.37 179.414 114.416 180.011 115.013C180.608 115.61 181.398 115.994 182.379 116.165L195.883 118.917C197.163 119.173 198.208 119.728 199.019 120.581C199.872 121.434 200.299 122.97 200.299 125.189V128.901C200.299 130.778 199.659 132.336 198.379 133.573C197.099 134.768 195.371 135.365 193.195 135.365H177.259V134.725H193.195C195.158 134.725 196.715 134.192 197.867 133.125C199.062 132.016 199.659 130.608 199.659 128.901V125.189C199.659 123.184 199.296 121.818 198.571 121.093C197.888 120.325 196.95 119.813 195.755 119.557L182.251 116.805C181.142 116.592 180.224 116.165 179.499 115.525C178.816 114.842 178.475 113.626 178.475 111.877V106.629C178.475 104.922 179.072 103.536 180.267 102.469C181.462 101.36 183.04 100.805 185.003 100.805H199.211ZM233.53 148.741H223.162C222.138 148.741 221.391 148.506 220.922 148.037C220.453 147.568 220.218 146.821 220.218 145.797V115.013H211.45C210.426 115.013 209.679 114.778 209.21 114.309C208.741 113.84 208.506 113.093 208.506 112.069V104.325C208.506 103.77 208.57 103.301 208.698 102.917C208.869 102.533 209.103 102.213 209.402 101.957L217.658 94.981C217.871 94.8103 218.149 94.6823 218.49 94.597C218.874 94.469 219.279 94.405 219.706 94.405H253.498C254.522 94.405 255.269 94.6397 255.738 95.109C256.207 95.5783 256.442 96.325 256.442 97.349V105.093C256.442 105.648 256.357 106.117 256.186 106.501C256.058 106.885 255.845 107.205 255.546 107.461L247.226 114.373C247.055 114.544 246.778 114.693 246.394 114.821C246.053 114.949 245.669 115.013 245.242 115.013H244.73V138.821C244.73 139.376 244.645 139.845 244.474 140.229C244.346 140.613 244.133 140.933 243.834 141.189L235.514 148.101C235.343 148.272 235.066 148.421 234.682 148.549C234.341 148.677 233.957 148.741 233.53 148.741ZM241.786 141.125C242.597 141.125 243.173 140.954 243.514 140.613C243.898 140.229 244.09 139.632 244.09 138.821V107.397H253.498C254.309 107.397 254.885 107.226 255.226 106.885C255.61 106.501 255.802 105.904 255.802 105.093V97.349C255.802 96.5383 255.61 95.9623 255.226 95.621C254.885 95.237 254.309 95.045 253.498 95.045H219.706C218.895 95.045 218.298 95.237 217.914 95.621C217.573 95.9623 217.402 96.5383 217.402 97.349V105.093C217.402 105.904 217.573 106.501 217.914 106.885C218.298 107.226 218.895 107.397 219.706 107.397H229.114V138.821C229.114 139.632 229.285 140.229 229.626 140.613C230.01 140.954 230.607 141.125 231.418 141.125H241.786ZM236.282 135.365V101.445H223.162V100.805H250.042V101.445H236.922V135.365H236.282Z" fill="url(#paint0_linear_15_6)" fill-opacity="0.5"/>
  <path d="M5.824 71.741C4.8 71.741 4.05333 71.5063 3.584 71.037C3.11467 70.5677 2.88 69.821 2.88 68.797V27.325C2.88 26.7703 2.944 26.301 3.072 25.917C3.24267 25.533 3.47733 25.213 3.776 24.957L12.032 17.981C12.2453 17.8103 12.5227 17.6823 12.864 17.597C13.248 17.469 13.6533 17.405 14.08 17.405H34.496C38.9333 17.405 42.1973 18.2797 44.288 20.029C46.3787 21.7357 47.424 24.3383 47.424 27.837V30.909C47.424 32.4023 47.2107 33.6823 46.784 34.749C46.4 35.8157 45.8027 36.669 44.992 37.309L44.8 37.437C47.104 37.949 48.832 39.0583 49.984 40.765C51.136 42.429 51.712 44.7543 51.712 47.741V53.629C51.712 55.549 51.4347 57.213 50.88 58.621C50.3253 59.9863 49.4933 61.1383 48.384 62.077L40.128 69.053C39.0613 69.949 37.7173 70.6103 36.096 71.037C34.4747 71.5063 32.576 71.741 30.4 71.741H5.824ZM38.656 64.125C42.88 64.125 45.9947 63.2717 48 61.565C50.048 59.8583 51.072 57.213 51.072 53.629V47.741C51.072 44.6263 50.4107 42.2583 49.088 40.637C47.7653 39.0157 45.7387 38.077 43.008 37.821C44.288 37.2663 45.2267 36.4343 45.824 35.325C46.464 34.173 46.784 32.701 46.784 30.909V27.837C46.784 24.509 45.7813 22.0557 43.776 20.477C41.7707 18.8557 38.6773 18.045 34.496 18.045H14.08C13.2693 18.045 12.672 18.237 12.288 18.621C11.9467 18.9623 11.776 19.5383 11.776 20.349V61.821C11.776 62.6317 11.9467 63.229 12.288 63.613C12.672 63.9543 13.2693 64.125 14.08 64.125H38.656ZM36.096 58.365H18.88V23.805H31.872C33.6213 23.805 35.0507 23.997 36.16 24.381C37.2693 24.7223 38.1227 25.213 38.72 25.853C39.3173 26.4503 39.7227 27.1543 39.936 27.965C40.1493 28.7757 40.256 29.6503 40.256 30.589V34.685C40.256 35.965 40.0213 37.1383 39.552 38.205C39.1253 39.2717 37.9947 40.0397 36.16 40.509C37.9093 40.509 39.3387 40.701 40.448 41.085C41.5573 41.4263 42.4107 41.9383 43.008 42.621C43.6053 43.261 43.9893 44.029 44.16 44.925C44.3733 45.821 44.48 46.8023 44.48 47.869V51.965C44.48 52.9037 44.3733 53.7783 44.16 54.589C43.9467 55.357 43.5413 56.0183 42.944 56.573C42.3893 57.1277 41.5573 57.5757 40.448 57.917C39.3387 58.2157 37.888 58.365 36.096 58.365ZM31.872 24.445H19.52V40.509H31.872C33.6213 40.509 35.008 40.3597 36.032 40.061C37.056 39.7197 37.824 39.293 38.336 38.781C38.8907 38.2263 39.232 37.6077 39.36 36.925C39.5307 36.1997 39.616 35.453 39.616 34.685V30.589C39.616 28.8823 39.1253 27.4317 38.144 26.237C37.1627 25.0423 35.072 24.445 31.872 24.445ZM26.176 28.925H31.616C32.4267 28.925 33.024 29.1383 33.408 29.565C33.8347 29.9917 34.048 30.6317 34.048 31.485V33.277C34.048 34.1303 33.8347 34.7703 33.408 35.197C33.024 35.6237 32.4267 35.837 31.616 35.837H26.176V28.925ZM36.16 41.149H19.52V57.725H36.096C39.296 57.725 41.3867 57.213 42.368 56.189C43.3493 55.1223 43.84 53.7143 43.84 51.965V47.869C43.84 45.949 43.3493 44.349 42.368 43.069C41.4293 41.789 39.36 41.149 36.16 41.149ZM26.176 45.693H34.496C35.3067 45.693 35.904 45.9063 36.288 46.333C36.7147 46.717 36.928 47.3357 36.928 48.189V50.685C36.928 51.5383 36.7147 52.1783 36.288 52.605C35.904 53.0317 35.3067 53.245 34.496 53.245H26.176V45.693ZM86.0925 24.445H72.1405V42.941H86.0925C88.7378 42.941 90.5085 42.301 91.4045 41.021C92.3005 39.741 92.7485 37.9277 92.7485 35.581V31.101C92.7485 29.1383 92.1938 27.5383 91.0845 26.301C90.0178 25.0637 88.3538 24.445 86.0925 24.445ZM79.0525 29.565H83.8525C84.9618 29.565 85.7085 29.8637 86.0925 30.461C86.4765 31.0157 86.6685 31.7197 86.6685 32.573V34.749C86.6685 35.6023 86.4765 36.3277 86.0925 36.925C85.7085 37.4797 84.9618 37.757 83.8525 37.757H79.0525V29.565ZM72.1405 58.365H71.5005V23.805H86.0925C88.5672 23.805 90.4018 24.509 91.5965 25.917C92.7912 27.2823 93.3885 29.0103 93.3885 31.101V35.517C93.3885 37.4797 93.1325 39.101 92.6205 40.381C92.1085 41.6183 91.0845 42.4717 89.5485 42.941H90.2525C92.8552 42.941 94.7965 43.5383 96.0765 44.733C97.3565 45.885 97.9965 47.5703 97.9965 49.789V58.365H97.3565V49.789C97.3565 47.6983 96.7805 46.141 95.6285 45.117C94.4765 44.0503 92.6845 43.517 90.2525 43.517H72.1405V58.365ZM76.7485 64.125C77.5592 64.125 78.1352 63.9543 78.4765 63.613C78.8605 63.229 79.0525 62.6317 79.0525 61.821V49.277H88.0125C88.9085 49.277 89.5272 49.5117 89.8685 49.981C90.2525 50.4077 90.4445 51.0903 90.4445 52.029V61.821C90.4445 62.6317 90.6152 63.229 90.9565 63.613C91.3405 63.9543 91.9378 64.125 92.7485 64.125H102.669C103.479 64.125 104.055 63.9543 104.397 63.613C104.781 63.229 104.973 62.6317 104.973 61.821V48.253C104.973 45.565 104.247 43.4103 102.797 41.789C101.389 40.1677 99.5325 39.229 97.2285 38.973C98.5512 38.4183 99.4685 37.5223 99.9805 36.285C100.535 35.005 100.813 33.469 100.813 31.677V28.733C100.813 25.5757 99.8952 23.0157 98.0605 21.053C96.2685 19.0477 92.9832 18.045 88.2045 18.045H66.8925C66.0818 18.045 65.4845 18.237 65.1005 18.621C64.7592 18.9623 64.5885 19.5383 64.5885 20.349V61.821C64.5885 62.6317 64.7592 63.229 65.1005 63.613C65.4845 63.9543 66.0818 64.125 66.8925 64.125H76.7485ZM78.7965 64.189L70.4765 71.101C70.3058 71.2717 70.0285 71.421 69.6445 71.549C69.3032 71.677 68.9192 71.741 68.4925 71.741H58.6365C57.6125 71.741 56.8658 71.5063 56.3965 71.037C55.9272 70.5677 55.6925 69.821 55.6925 68.797V27.325C55.6925 26.7703 55.7565 26.301 55.8845 25.917C56.0552 25.533 56.2898 25.213 56.5885 24.957L64.8445 17.981C65.0578 17.8103 65.3352 17.6823 65.6765 17.597C66.0605 17.469 66.4658 17.405 66.8925 17.405H88.2045C93.2818 17.405 96.7592 18.4717 98.6365 20.605C100.514 22.6957 101.453 25.405 101.453 28.733V31.677C101.453 33.2557 101.261 34.6423 100.877 35.837C100.493 36.989 99.8738 37.9277 99.0205 38.653H98.9565C100.962 39.2077 102.562 40.317 103.757 41.981C104.994 43.645 105.613 45.7357 105.613 48.253V61.821C105.613 62.3757 105.527 62.845 105.357 63.229C105.229 63.613 105.015 63.933 104.717 64.189L96.3965 71.101C96.2258 71.2717 95.9485 71.421 95.5645 71.549C95.2232 71.677 94.8392 71.741 94.4125 71.741H84.4925C83.4685 71.741 82.7218 71.5063 82.2525 71.037C81.7832 70.5677 81.5485 69.821 81.5485 68.797V59.005C81.5485 58.3223 81.4205 57.8103 81.1645 57.469C80.9085 57.085 80.4392 56.893 79.7565 56.893H79.6925V61.821C79.6925 62.3757 79.6072 62.845 79.4365 63.229C79.3085 63.613 79.0952 63.933 78.7965 64.189ZM124.99 44.733V46.717H149.95V44.733C149.95 43.581 149.843 42.5143 149.63 41.533C149.459 40.5517 149.225 39.6343 148.926 38.781L144.51 28.349C144.041 27.2397 143.55 26.3223 143.038 25.597C142.526 24.829 141.673 24.445 140.478 24.445H134.206C132.926 24.445 132.03 24.829 131.518 25.597C131.006 26.3223 130.537 27.2183 130.11 28.285L126.014 38.781C125.715 39.6343 125.459 40.5517 125.246 41.533C125.075 42.5143 124.99 43.581 124.99 44.733ZM135.23 31.485C135.401 31.101 135.571 30.8237 135.742 30.653C135.955 30.4823 136.19 30.397 136.446 30.397H138.046C138.302 30.397 138.515 30.4823 138.686 30.653C138.899 30.8237 139.091 31.101 139.262 31.485L142.27 41.213H132.222L135.23 31.485ZM149.95 58.365V47.357H124.99V58.365H124.35V44.733C124.35 43.5383 124.435 42.4503 124.606 41.469C124.819 40.445 125.097 39.4637 125.438 38.525L129.534 28.029C130.003 26.8343 130.537 25.8317 131.134 25.021C131.731 24.2103 132.755 23.805 134.206 23.805H140.478C141.886 23.805 142.867 24.2103 143.422 25.021C144.019 25.8317 144.574 26.8557 145.086 28.093L149.502 38.525C149.843 39.4637 150.099 40.445 150.27 41.469C150.483 42.4503 150.59 43.5383 150.59 44.733V58.365H149.95ZM131.582 61.821V52.861H142.91V61.821C142.91 62.6317 143.102 63.229 143.486 63.613C143.913 63.9543 144.553 64.125 145.406 64.125H155.07C155.881 64.125 156.457 63.9543 156.798 63.613C157.182 63.229 157.374 62.6317 157.374 61.821V44.925C157.374 43.645 157.161 42.173 156.734 40.509C156.35 38.845 155.731 36.9037 154.878 34.685L149.31 20.157C149.054 19.4317 148.649 18.8983 148.094 18.557C147.582 18.2157 146.921 18.045 146.11 18.045H128.894C128.041 18.045 127.337 18.2157 126.782 18.557C126.27 18.8983 125.886 19.4317 125.63 20.157L120.062 34.685C119.209 36.9037 118.569 38.845 118.142 40.509C117.758 42.173 117.566 43.645 117.566 44.925V61.821C117.566 62.6317 117.737 63.229 118.078 63.613C118.462 63.9543 119.059 64.125 119.87 64.125H129.278C130.089 64.125 130.665 63.9543 131.006 63.613C131.39 63.229 131.582 62.6317 131.582 61.821ZM123.006 71.101C122.835 71.2717 122.558 71.421 122.174 71.549C121.833 71.677 121.449 71.741 121.022 71.741H111.614C110.59 71.741 109.843 71.5063 109.374 71.037C108.905 70.5677 108.67 69.821 108.67 68.797V51.901C108.67 50.5783 108.862 49.085 109.246 47.421C109.673 45.7143 110.334 43.709 111.23 41.405L116.734 26.941C116.862 26.557 117.011 26.237 117.182 25.981C117.395 25.6823 117.609 25.4263 117.822 25.213L117.886 25.149L126.078 18.301C126.419 18.0023 126.825 17.789 127.294 17.661C127.763 17.4903 128.297 17.405 128.894 17.405H146.11C147.091 17.405 147.881 17.6183 148.478 18.045C149.118 18.429 149.587 19.0477 149.886 19.901L155.454 34.429C156.35 36.733 156.99 38.7383 157.374 40.445C157.801 42.109 158.014 43.6023 158.014 44.925V61.821C158.014 62.3757 157.929 62.845 157.758 63.229C157.63 63.613 157.417 63.933 157.118 64.189L148.798 71.101C148.627 71.2717 148.35 71.421 147.966 71.549C147.625 71.677 147.241 71.741 146.814 71.741H137.15C136.083 71.741 135.294 71.485 134.782 70.973C134.27 70.5037 134.014 69.7783 134.014 68.797V60.477H132.222V61.821C132.222 62.3757 132.137 62.845 131.966 63.229C131.838 63.613 131.625 63.933 131.326 64.189L123.006 71.101ZM191.939 71.741H164.675C163.651 71.741 162.904 71.5063 162.435 71.037C161.966 70.5677 161.731 69.821 161.731 68.797V61.181C161.731 60.6263 161.795 60.157 161.923 59.773C162.094 59.389 162.328 59.069 162.627 58.813L170.371 52.285V38.013H164.675C163.651 38.013 162.904 37.7783 162.435 37.309C161.966 36.8397 161.731 36.093 161.731 35.069V27.325C161.731 26.7703 161.795 26.301 161.923 25.917C162.094 25.533 162.328 25.213 162.627 24.957L170.883 17.981C171.096 17.8103 171.374 17.6823 171.715 17.597C172.099 17.469 172.504 17.405 172.931 17.405H200.195C201.219 17.405 201.966 17.6397 202.435 18.109C202.904 18.5783 203.139 19.325 203.139 20.349V28.093C203.139 28.6477 203.054 29.117 202.883 29.501C202.755 29.885 202.542 30.205 202.243 30.461L194.627 36.861V51.261H200.195C201.219 51.261 201.966 51.4957 202.435 51.965C202.904 52.4343 203.139 53.181 203.139 54.205V61.821C203.139 62.3757 203.054 62.845 202.883 63.229C202.755 63.613 202.542 63.933 202.243 64.189L193.923 71.101C193.752 71.2717 193.475 71.421 193.091 71.549C192.75 71.677 192.366 71.741 191.939 71.741ZM172.931 64.125H200.195C201.006 64.125 201.582 63.9543 201.923 63.613C202.307 63.229 202.499 62.6317 202.499 61.821V54.205C202.499 53.3943 202.307 52.8183 201.923 52.477C201.582 52.093 201.006 51.901 200.195 51.901H193.987V30.397H200.195C201.006 30.397 201.582 30.2263 201.923 29.885C202.307 29.501 202.499 28.9037 202.499 28.093V20.349C202.499 19.5383 202.307 18.9623 201.923 18.621C201.582 18.237 201.006 18.045 200.195 18.045H172.931C172.12 18.045 171.523 18.237 171.139 18.621C170.798 18.9623 170.627 19.5383 170.627 20.349V28.093C170.627 28.9037 170.798 29.501 171.139 29.885C171.523 30.2263 172.12 30.397 172.931 30.397H179.267V51.901H172.931C172.12 51.901 171.523 52.093 171.139 52.477C170.798 52.8183 170.627 53.3943 170.627 54.205V61.821C170.627 62.6317 170.798 63.229 171.139 63.613C171.523 63.9543 172.12 64.125 172.931 64.125ZM196.739 58.365H176.387V57.725H186.307V24.445H176.387V23.805H196.739V24.445H186.947V57.725H196.739V58.365ZM225.224 24.317L248.776 50.813V23.805H249.416V58.365H248.776V51.773L224.584 24.637C224.541 24.5943 224.477 24.5517 224.392 24.509C224.349 24.4663 224.307 24.445 224.264 24.445C224.221 24.445 224.179 24.4663 224.136 24.509C224.136 24.5517 224.136 24.5943 224.136 24.637V58.365H223.496V24.509C223.496 24.253 223.581 24.061 223.752 23.933C223.923 23.805 224.093 23.741 224.264 23.741C224.435 23.741 224.584 23.7837 224.712 23.869C224.84 23.9543 225.011 24.1037 225.224 24.317ZM228.68 64.125C229.491 64.125 230.067 63.9543 230.408 63.613C230.792 63.229 230.984 62.6317 230.984 61.821V40.701L241.928 53.949V61.821C241.928 62.6317 242.099 63.229 242.44 63.613C242.824 63.9543 243.421 64.125 244.232 64.125H253.832C254.643 64.125 255.219 63.9543 255.56 63.613C255.944 63.229 256.136 62.6317 256.136 61.821V20.349C256.136 19.5383 255.944 18.9623 255.56 18.621C255.219 18.237 254.643 18.045 253.832 18.045H244.232C243.421 18.045 242.824 18.237 242.44 18.621C242.099 18.9623 241.928 19.5383 241.928 20.349V33.981L229.512 19.773C228.957 19.133 228.381 18.685 227.784 18.429C227.229 18.173 226.547 18.045 225.736 18.045H219.08C218.269 18.045 217.672 18.237 217.288 18.621C216.947 18.9623 216.776 19.5383 216.776 20.349V61.821C216.776 62.6317 216.947 63.229 217.288 63.613C217.672 63.9543 218.269 64.125 219.08 64.125H228.68ZM230.728 64.189L222.408 71.101C222.237 71.2717 221.96 71.421 221.576 71.549C221.235 71.677 220.851 71.741 220.424 71.741H210.824C209.8 71.741 209.053 71.5063 208.584 71.037C208.115 70.5677 207.88 69.821 207.88 68.797V27.325C207.88 26.7703 207.944 26.301 208.072 25.917C208.243 25.533 208.477 25.213 208.776 24.957L217.032 17.981C217.245 17.8103 217.523 17.6823 217.864 17.597C218.248 17.469 218.653 17.405 219.08 17.405H225.736C226.675 17.405 227.464 17.5543 228.104 17.853C228.744 18.1517 229.384 18.6423 230.024 19.325L234.44 24.445L242.184 17.981C242.397 17.8103 242.675 17.6823 243.016 17.597C243.4 17.469 243.805 17.405 244.232 17.405H253.832C254.856 17.405 255.603 17.6397 256.072 18.109C256.541 18.5783 256.776 19.325 256.776 20.349V61.821C256.776 62.3757 256.691 62.845 256.52 63.229C256.392 63.613 256.179 63.933 255.88 64.189L247.56 71.101C247.389 71.2717 247.112 71.421 246.728 71.549C246.387 71.677 246.003 71.741 245.576 71.741H235.976C234.952 71.741 234.205 71.5063 233.736 71.037C233.267 70.5677 233.032 69.821 233.032 68.797V61.181L231.624 59.453V61.821C231.624 62.3757 231.539 62.845 231.368 63.229C231.24 63.613 231.027 63.933 230.728 64.189ZM5.824 148.741C4.8 148.741 4.05333 148.506 3.584 148.037C3.11467 147.568 2.88 146.821 2.88 145.797V104.325C2.88 103.77 2.944 103.301 3.072 102.917C3.24267 102.533 3.47733 102.213 3.776 101.957L12.032 94.981C12.2453 94.8103 12.5227 94.6823 12.864 94.597C13.248 94.469 13.6533 94.405 14.08 94.405H34.496C38.9333 94.405 42.1973 95.2797 44.288 97.029C46.3787 98.7357 47.424 101.338 47.424 104.837V107.909C47.424 109.402 47.2107 110.682 46.784 111.749C46.4 112.816 45.8027 113.669 44.992 114.309L44.8 114.437C47.104 114.949 48.832 116.058 49.984 117.765C51.136 119.429 51.712 121.754 51.712 124.741V130.629C51.712 132.549 51.4347 134.213 50.88 135.621C50.3253 136.986 49.4933 138.138 48.384 139.077L40.128 146.053C39.0613 146.949 37.7173 147.61 36.096 148.037C34.4747 148.506 32.576 148.741 30.4 148.741H5.824ZM38.656 141.125C42.88 141.125 45.9947 140.272 48 138.565C50.048 136.858 51.072 134.213 51.072 130.629V124.741C51.072 121.626 50.4107 119.258 49.088 117.637C47.7653 116.016 45.7387 115.077 43.008 114.821C44.288 114.266 45.2267 113.434 45.824 112.325C46.464 111.173 46.784 109.701 46.784 107.909V104.837C46.784 101.509 45.7813 99.0557 43.776 97.477C41.7707 95.8557 38.6773 95.045 34.496 95.045H14.08C13.2693 95.045 12.672 95.237 12.288 95.621C11.9467 95.9623 11.776 96.5383 11.776 97.349V138.821C11.776 139.632 11.9467 140.229 12.288 140.613C12.672 140.954 13.2693 141.125 14.08 141.125H38.656ZM36.096 135.365H18.88V100.805H31.872C33.6213 100.805 35.0507 100.997 36.16 101.381C37.2693 101.722 38.1227 102.213 38.72 102.853C39.3173 103.45 39.7227 104.154 39.936 104.965C40.1493 105.776 40.256 106.65 40.256 107.589V111.685C40.256 112.965 40.0213 114.138 39.552 115.205C39.1253 116.272 37.9947 117.04 36.16 117.509C37.9093 117.509 39.3387 117.701 40.448 118.085C41.5573 118.426 42.4107 118.938 43.008 119.621C43.6053 120.261 43.9893 121.029 44.16 121.925C44.3733 122.821 44.48 123.802 44.48 124.869V128.965C44.48 129.904 44.3733 130.778 44.16 131.589C43.9467 132.357 43.5413 133.018 42.944 133.573C42.3893 134.128 41.5573 134.576 40.448 134.917C39.3387 135.216 37.888 135.365 36.096 135.365ZM31.872 101.445H19.52V117.509H31.872C33.6213 117.509 35.008 117.36 36.032 117.061C37.056 116.72 37.824 116.293 38.336 115.781C38.8907 115.226 39.232 114.608 39.36 113.925C39.5307 113.2 39.616 112.453 39.616 111.685V107.589C39.616 105.882 39.1253 104.432 38.144 103.237C37.1627 102.042 35.072 101.445 31.872 101.445ZM26.176 105.925H31.616C32.4267 105.925 33.024 106.138 33.408 106.565C33.8347 106.992 34.048 107.632 34.048 108.485V110.277C34.048 111.13 33.8347 111.77 33.408 112.197C33.024 112.624 32.4267 112.837 31.616 112.837H26.176V105.925ZM36.16 118.149H19.52V134.725H36.096C39.296 134.725 41.3867 134.213 42.368 133.189C43.3493 132.122 43.84 130.714 43.84 128.965V124.869C43.84 122.949 43.3493 121.349 42.368 120.069C41.4293 118.789 39.36 118.149 36.16 118.149ZM26.176 122.693H34.496C35.3067 122.693 35.904 122.906 36.288 123.333C36.7147 123.717 36.928 124.336 36.928 125.189V127.685C36.928 128.538 36.7147 129.178 36.288 129.605C35.904 130.032 35.3067 130.245 34.496 130.245H26.176V122.693ZM75.7885 149.701C71.6498 149.701 68.2365 149.253 65.5485 148.357C62.9032 147.504 60.8338 146.352 59.3405 144.901C57.8472 143.45 56.8018 141.786 56.2045 139.909C55.6498 138.032 55.3725 136.09 55.3725 134.085V104.325C55.3725 103.77 55.4365 103.301 55.5645 102.917C55.7352 102.533 55.9698 102.213 56.2685 101.957L64.5245 94.981C64.7378 94.8103 65.0152 94.6823 65.3565 94.597C65.7405 94.469 66.1458 94.405 66.5725 94.405H76.6205C77.6445 94.405 78.3912 94.6397 78.8605 95.109C79.3298 95.5783 79.5645 96.325 79.5645 97.349V126.533C79.5645 126.917 79.6285 127.28 79.7565 127.621C79.8845 127.92 80.1618 128.154 80.5885 128.325V104.325C80.5885 103.77 80.6525 103.301 80.7805 102.917C80.9085 102.533 81.1005 102.234 81.3565 102.021L81.4205 101.957L89.7405 94.981C89.9538 94.8103 90.2312 94.6823 90.5725 94.597C90.9138 94.469 91.3192 94.405 91.7885 94.405H101.517C102.541 94.405 103.287 94.6397 103.757 95.109C104.226 95.5783 104.461 96.325 104.461 97.349V129.029C104.461 130.992 104.183 132.805 103.629 134.469C103.074 136.133 102.071 137.562 100.621 138.757L92.3005 145.669C90.8072 146.949 88.7378 147.93 86.0925 148.613C83.4472 149.338 80.0125 149.701 75.7885 149.701ZM103.821 129.029V97.349C103.821 96.5383 103.629 95.9623 103.245 95.621C102.903 95.237 102.327 95.045 101.517 95.045H91.7885C90.9778 95.045 90.3805 95.237 89.9965 95.621C89.6552 95.9623 89.4845 96.5383 89.4845 97.349V126.533C89.4845 127.386 89.1645 128.112 88.5245 128.709C87.8845 129.264 86.4338 129.541 84.1725 129.541C81.9538 129.541 80.5245 129.264 79.8845 128.709C79.2445 128.112 78.9245 127.386 78.9245 126.533V97.349C78.9245 96.5383 78.7325 95.9623 78.3485 95.621C78.0072 95.237 77.4312 95.045 76.6205 95.045H66.5725C65.7618 95.045 65.1645 95.237 64.7805 95.621C64.4392 95.9623 64.2685 96.5383 64.2685 97.349V129.029C64.2685 130.992 64.5458 132.784 65.1005 134.405C65.6978 135.984 66.7218 137.349 68.1725 138.501C69.6658 139.61 71.6925 140.485 74.2525 141.125C76.8125 141.765 80.0765 142.085 84.0445 142.085C88.0125 142.085 91.2765 141.765 93.8365 141.125C96.3965 140.485 98.4018 139.61 99.8525 138.501C101.346 137.349 102.37 135.984 102.925 134.405C103.522 132.784 103.821 130.992 103.821 129.029ZM71.3085 100.805H71.9485V127.493C71.9485 129.882 72.7805 131.824 74.4445 133.317C76.1512 134.768 79.3725 135.493 84.1085 135.493C88.8445 135.493 92.0658 134.768 93.7725 133.317C95.4792 131.824 96.3325 129.882 96.3325 127.493V100.805H96.9725V127.493C96.9725 130.053 96.0765 132.144 94.2845 133.765C92.4925 135.344 89.1005 136.133 84.1085 136.133C79.1165 136.133 75.7245 135.344 73.9325 133.765C72.1832 132.144 71.3085 130.053 71.3085 127.493V100.805ZM140.218 101.445H126.266V119.941H140.218C142.863 119.941 144.634 119.301 145.53 118.021C146.426 116.741 146.874 114.928 146.874 112.581V108.101C146.874 106.138 146.319 104.538 145.21 103.301C144.143 102.064 142.479 101.445 140.218 101.445ZM133.178 106.565H137.978C139.087 106.565 139.834 106.864 140.218 107.461C140.602 108.016 140.794 108.72 140.794 109.573V111.749C140.794 112.602 140.602 113.328 140.218 113.925C139.834 114.48 139.087 114.757 137.978 114.757H133.178V106.565ZM126.266 135.365H125.626V100.805H140.218C142.692 100.805 144.527 101.509 145.722 102.917C146.916 104.282 147.514 106.01 147.514 108.101V112.517C147.514 114.48 147.258 116.101 146.746 117.381C146.234 118.618 145.21 119.472 143.674 119.941H144.378C146.98 119.941 148.922 120.538 150.202 121.733C151.482 122.885 152.122 124.57 152.122 126.789V135.365H151.482V126.789C151.482 124.698 150.906 123.141 149.754 122.117C148.602 121.05 146.81 120.517 144.378 120.517H126.266V135.365ZM130.874 141.125C131.684 141.125 132.26 140.954 132.602 140.613C132.986 140.229 133.178 139.632 133.178 138.821V126.277H142.138C143.034 126.277 143.652 126.512 143.994 126.981C144.378 127.408 144.569 128.09 144.569 129.029V138.821C144.569 139.632 144.74 140.229 145.082 140.613C145.466 140.954 146.063 141.125 146.874 141.125H156.794C157.604 141.125 158.18 140.954 158.522 140.613C158.906 140.229 159.098 139.632 159.098 138.821V125.253C159.098 122.565 158.372 120.41 156.922 118.789C155.514 117.168 153.658 116.229 151.354 115.973C152.676 115.418 153.594 114.522 154.106 113.285C154.66 112.005 154.938 110.469 154.938 108.677V105.733C154.938 102.576 154.02 100.016 152.186 98.053C150.394 96.0477 147.108 95.045 142.33 95.045H121.018C120.207 95.045 119.61 95.237 119.226 95.621C118.884 95.9623 118.714 96.5383 118.714 97.349V138.821C118.714 139.632 118.884 140.229 119.226 140.613C119.61 140.954 120.207 141.125 121.018 141.125H130.874ZM132.922 141.189L124.602 148.101C124.431 148.272 124.154 148.421 123.77 148.549C123.428 148.677 123.044 148.741 122.618 148.741H112.762C111.738 148.741 110.991 148.506 110.522 148.037C110.052 147.568 109.818 146.821 109.818 145.797V104.325C109.818 103.77 109.882 103.301 110.01 102.917C110.18 102.533 110.415 102.213 110.714 101.957L118.97 94.981C119.183 94.8103 119.46 94.6823 119.802 94.597C120.186 94.469 120.591 94.405 121.018 94.405H142.33C147.407 94.405 150.884 95.4717 152.762 97.605C154.639 99.6957 155.578 102.405 155.578 105.733V108.677C155.578 110.256 155.386 111.642 155.002 112.837C154.618 113.989 153.999 114.928 153.146 115.653H153.082C155.087 116.208 156.687 117.317 157.882 118.981C159.119 120.645 159.738 122.736 159.738 125.253V138.821C159.738 139.376 159.652 139.845 159.482 140.229C159.354 140.613 159.14 140.933 158.842 141.189L150.522 148.101C150.351 148.272 150.074 148.421 149.69 148.549C149.348 148.677 148.964 148.741 148.538 148.741H138.618C137.594 148.741 136.847 148.506 136.378 148.037C135.908 147.568 135.674 146.821 135.674 145.797V136.005C135.674 135.322 135.546 134.81 135.29 134.469C135.034 134.085 134.564 133.893 133.882 133.893H133.818V138.821C133.818 139.376 133.732 139.845 133.562 140.229C133.434 140.613 133.22 140.933 132.922 141.189ZM165.547 148.741C164.523 148.741 163.776 148.506 163.307 148.037C162.838 147.568 162.603 146.821 162.603 145.797V138.309C162.603 137.754 162.667 137.285 162.795 136.901C162.966 136.517 163.2 136.197 163.499 135.941L169.899 130.565C167.638 129.882 165.846 128.73 164.523 127.109C163.243 125.445 162.603 123.077 162.603 120.005V113.285C162.603 111.365 162.923 109.658 163.563 108.165C164.203 106.672 165.12 105.413 166.315 104.389L174.635 97.413C175.787 96.4743 177.216 95.749 178.923 95.237C180.63 94.6823 182.571 94.405 184.747 94.405H202.667C203.691 94.405 204.438 94.6397 204.907 95.109C205.376 95.5783 205.611 96.325 205.611 97.349V104.965C205.611 105.52 205.526 105.989 205.355 106.373C205.227 106.757 205.014 107.077 204.715 107.333L198.955 112.133C201.643 112.73 203.798 113.861 205.419 115.525C207.083 117.146 207.915 119.685 207.915 123.141V129.861C207.915 131.781 207.595 133.488 206.955 134.981C206.315 136.474 205.376 137.733 204.139 138.757L195.883 145.669C194.688 146.65 193.238 147.397 191.531 147.909C189.824 148.464 187.904 148.741 185.771 148.741H165.547ZM194.027 141.125C198.123 141.125 201.344 140.165 203.691 138.245C206.08 136.282 207.275 133.488 207.275 129.861V123.141C207.275 119.557 206.358 116.997 204.523 115.461C202.688 113.925 200.278 112.944 197.291 112.517L187.755 111.237C187.2 111.194 186.774 110.981 186.475 110.597C186.176 110.213 186.027 109.744 186.027 109.189C186.027 108.634 186.176 108.186 186.475 107.845C186.774 107.461 187.2 107.269 187.755 107.269H202.667C203.478 107.269 204.054 107.098 204.395 106.757C204.779 106.373 204.971 105.776 204.971 104.965V97.349C204.971 96.5383 204.779 95.9623 204.395 95.621C204.054 95.237 203.478 95.045 202.667 95.045H184.747C180.608 95.045 177.366 96.0263 175.019 97.989C172.672 99.909 171.499 102.682 171.499 106.309V113.029C171.499 116.613 172.395 119.173 174.187 120.709C176.022 122.245 178.432 123.226 181.419 123.653L191.019 124.997C191.574 125.04 191.979 125.232 192.235 125.573C192.534 125.914 192.683 126.448 192.683 127.173C192.683 127.685 192.534 128.133 192.235 128.517C191.979 128.858 191.574 129.029 191.019 129.029H173.803C172.992 129.029 172.395 129.221 172.011 129.605C171.67 129.946 171.499 130.522 171.499 131.333V138.821C171.499 139.632 171.67 140.229 172.011 140.613C172.395 140.954 172.992 141.125 173.803 141.125H194.027ZM199.211 100.805V101.445H185.003C183.211 101.445 181.782 101.936 180.715 102.917C179.648 103.898 179.115 105.136 179.115 106.629V111.877C179.115 113.37 179.414 114.416 180.011 115.013C180.608 115.61 181.398 115.994 182.379 116.165L195.883 118.917C197.163 119.173 198.208 119.728 199.019 120.581C199.872 121.434 200.299 122.97 200.299 125.189V128.901C200.299 130.778 199.659 132.336 198.379 133.573C197.099 134.768 195.371 135.365 193.195 135.365H177.259V134.725H193.195C195.158 134.725 196.715 134.192 197.867 133.125C199.062 132.016 199.659 130.608 199.659 128.901V125.189C199.659 123.184 199.296 121.818 198.571 121.093C197.888 120.325 196.95 119.813 195.755 119.557L182.251 116.805C181.142 116.592 180.224 116.165 179.499 115.525C178.816 114.842 178.475 113.626 178.475 111.877V106.629C178.475 104.922 179.072 103.536 180.267 102.469C181.462 101.36 183.04 100.805 185.003 100.805H199.211ZM233.53 148.741H223.162C222.138 148.741 221.391 148.506 220.922 148.037C220.453 147.568 220.218 146.821 220.218 145.797V115.013H211.45C210.426 115.013 209.679 114.778 209.21 114.309C208.741 113.84 208.506 113.093 208.506 112.069V104.325C208.506 103.77 208.57 103.301 208.698 102.917C208.869 102.533 209.103 102.213 209.402 101.957L217.658 94.981C217.871 94.8103 218.149 94.6823 218.49 94.597C218.874 94.469 219.279 94.405 219.706 94.405H253.498C254.522 94.405 255.269 94.6397 255.738 95.109C256.207 95.5783 256.442 96.325 256.442 97.349V105.093C256.442 105.648 256.357 106.117 256.186 106.501C256.058 106.885 255.845 107.205 255.546 107.461L247.226 114.373C247.055 114.544 246.778 114.693 246.394 114.821C246.053 114.949 245.669 115.013 245.242 115.013H244.73V138.821C244.73 139.376 244.645 139.845 244.474 140.229C244.346 140.613 244.133 140.933 243.834 141.189L235.514 148.101C235.343 148.272 235.066 148.421 234.682 148.549C234.341 148.677 233.957 148.741 233.53 148.741ZM241.786 141.125C242.597 141.125 243.173 140.954 243.514 140.613C243.898 140.229 244.09 139.632 244.09 138.821V107.397H253.498C254.309 107.397 254.885 107.226 255.226 106.885C255.61 106.501 255.802 105.904 255.802 105.093V97.349C255.802 96.5383 255.61 95.9623 255.226 95.621C254.885 95.237 254.309 95.045 253.498 95.045H219.706C218.895 95.045 218.298 95.237 217.914 95.621C217.573 95.9623 217.402 96.5383 217.402 97.349V105.093C217.402 105.904 217.573 106.501 217.914 106.885C218.298 107.226 218.895 107.397 219.706 107.397H229.114V138.821C229.114 139.632 229.285 140.229 229.626 140.613C230.01 140.954 230.607 141.125 231.418 141.125H241.786ZM236.282 135.365V101.445H223.162V100.805H250.042V101.445H236.922V135.365H236.282Z" fill="url(#paint1_linear_15_6)" fill-opacity="0.5"/>
  <defs>
    <linearGradient id="paint0_linear_15_6" x1="138" y1="0.125" x2="138" y2="158.125" gradientUnits="userSpaceOnUse">
      <stop offset="0.00520833" stop-color="#A5B4FC"/>
      <stop offset="0.9999" stop-color="#A5B4FC"/>
      <stop offset="1" stop-color="#A5B4FC" stop-opacity="0"/>
    </linearGradient>
    <linearGradient id="paint1_linear_15_6" x1="138" y1="0.125" x2="138" y2="158.125" gradientUnits="userSpaceOnUse">
      <stop offset="0.9999" stop-color="#913DE6"/>
      <stop offset="1" stop-color="#C084FC" stop-opacity="0"/>
    </linearGradient>
  </defs>
</svg>
